<?xml version="1.0" encoding="UTF-8" standalone="no"?><!DOCTYPE svg PUBLIC "-//W3C//DTD SVG 1.1//EN" "http://www.w3.org/Graphics/SVG/1.1/DTD/svg11.dtd"><svg width="100%" height="100%" viewBox="0 0 864 216" version="1.1" xmlns="http://www.w3.org/2000/svg" xmlns:xlink="http://www.w3.org/1999/xlink" xml:space="preserve" style="fill-rule:evenodd;clip-rule:evenodd;stroke-linejoin:round;stroke-miterlimit:1.41421;"><g><path d="M177.106,107.54l-48.906,-14.434l-12.351,29.18l-1.237,0.776l-28.321,17.786l13.105,44.402c0.127,0.429 0.293,0.644 0.459,0.644c0.166,0 0.332,-0.215 0.459,-0.644l17.041,-57.736c0.253,-0.859 1.156,-1.762 2.015,-2.015l57.736,-17.041c0.859,-0.253 0.859,-0.663 0,-0.918Z" style="fill:#fff;"/><path d="M48.036,115.965l23.959,7.071l11.85,-27.994l29.903,-18.78l-13.433,-45.513c-0.127,-0.43 -0.293,-0.644 -0.459,-0.644c-0.166,0 -0.333,0.214 -0.459,0.644l-17.04,57.736c-0.254,0.859 -1.156,1.761 -2.015,2.014l-57.738,17.041c-0.859,0.255 -0.859,0.665 0,0.919l22.961,6.777l2.471,0.729Z" style="fill:#fff;"/><path d="M61.804,163.577l0.14,-4.771l23.443,-7.977l-1.501,-5.085l-21.775,7.41l0.852,-28.933l-5.253,-1.551l-0.953,32.305l-7.134,2.428l1.085,-36.8l-5.254,-1.551l-1.351,45.826l12.487,-4.249l-0.299,10.171l32.098,-9.801l-1.499,-5.082l-25.086,7.66Z" style="fill:#fff;"/><path d="M154.257,119.052l-5.254,1.551l1.085,36.8l-7.262,-2.471l-0.95,-32.225l-5.254,1.551l0.85,28.851l-21.648,-7.365l-1.501,5.085l23.316,7.933l0.141,4.815l-24.969,-7.622l-1.5,5.08l31.982,9.765l-0.301,-10.215l12.616,4.293l-1.351,-45.826Z" style="fill:#fff;"/><path d="M87.548,98.194l-20.979,49.561l45.576,-28.621l20.978,-49.561l-45.575,28.621Zm18.697,15.416c-3.378,3.378 -8.856,3.378 -12.234,0c-3.379,-3.379 -3.379,-8.857 0,-12.234c3.378,-3.379 8.856,-3.379 12.234,0c3.378,3.377 3.378,8.855 0,12.234Z" style="fill:#fff;"/><path d="M45.392,96.966l5.254,-1.551l-1.026,-34.844l7.219,2.205l0.9,30.546l5.253,-1.551l-0.806,-27.362l21.489,6.564l1.5,-5.081l-23.154,-7.072l-0.217,-7.412l25.361,7.743l1.499,-5.081l-32.373,-9.883l0.383,13l-12.568,-3.839l1.286,43.618Z" style="fill:#fff;"/><path d="M137.78,51.408l-0.219,7.451l-23.024,7.033l1.499,5.081l21.361,-6.525l-0.804,27.285l5.253,1.552l0.898,-30.47l7.347,-2.244l-1.027,34.844l5.254,1.551l1.286,-43.618l-12.695,3.878l0.384,-13.039l-32.257,9.848l1.5,5.08l25.244,-7.707Z" style="fill:#fff;"/></g><g id="Layer1"><path d="M210.052,86.687l0,-9.568l45.817,0l0,9.568l-16.75,0l0,52.274l-12.407,0l0,-52.274l-16.66,0Z" style="fill:#fff;fill-rule:nonzero;"/><path d="M298.85,114.419c0,-4.489 -1.3,-8.018 -3.9,-10.588c-2.599,-2.569 -5.642,-3.854 -9.128,-3.854c-3.485,0 -6.513,1.27 -9.083,3.81c-2.57,2.54 -3.855,6.054 -3.855,10.544c0,4.489 1.3,8.033 3.899,10.632c2.6,2.598 5.627,3.898 9.084,3.898c3.456,0 6.484,-1.285 9.083,-3.854c2.6,-2.57 3.9,-6.099 3.9,-10.588Zm-38.639,-0.088c0,-7.384 2.186,-13.423 6.558,-18.119c4.372,-4.696 9.925,-7.044 16.661,-7.044c6.735,0 11.875,2.776 15.42,8.329l0,-7.62l12.406,0l0,49.084l-12.406,0l0,-8.239c-3.723,5.965 -8.892,8.948 -15.509,8.948c-6.617,0 -12.126,-2.377 -16.528,-7.132c-4.401,-4.755 -6.602,-10.824 -6.602,-18.207Z" style="fill:#fff;fill-rule:nonzero;"/><path d="M335.273,89.877l0,7.354c3.131,-5.375 8.212,-8.063 15.242,-8.063c5.613,0 10.192,1.846 13.736,5.538c3.545,3.691 5.318,8.815 5.318,15.372l0,28.883l-12.407,0l0,-27.111c0,-3.84 -0.975,-6.778 -2.925,-8.816c-1.949,-2.038 -4.608,-3.057 -7.975,-3.057c-3.368,0 -6.041,1.019 -8.021,3.057c-1.979,2.038 -2.968,4.976 -2.968,8.816l0,27.111l-12.496,0l0,-49.084l12.496,0Z" style="fill:#fff;fill-rule:nonzero;"/><path d="M377.19,114.331c0,-7.384 2.186,-13.423 6.558,-18.119c4.372,-4.696 9.926,-7.044 16.661,-7.044c6.735,0 11.875,2.776 15.42,8.329l0,-7.62l12.407,0l0,49.439c0,7.029 -2.068,12.773 -6.204,17.232c-4.136,4.46 -9.94,6.69 -17.414,6.69c-7.474,0 -13.411,-1.551 -17.813,-4.652c-4.401,-3.101 -6.897,-7.516 -7.488,-13.245l12.23,0c0.768,2.185 2.245,3.913 4.431,5.183c2.186,1.27 4.933,1.905 8.241,1.905c3.309,0 6.071,-1.093 8.286,-3.279c2.216,-2.185 3.324,-5.463 3.324,-9.834l0,-8.594c-3.722,5.965 -8.892,8.948 -15.509,8.948c-6.617,0 -12.126,-2.377 -16.528,-7.132c-4.401,-4.755 -6.602,-10.824 -6.602,-18.207Zm38.639,0.088c0,-4.489 -1.3,-8.018 -3.9,-10.588c-2.599,-2.569 -5.642,-3.854 -9.128,-3.854c-3.485,0 -6.513,1.27 -9.083,3.81c-2.57,2.54 -3.855,6.054 -3.855,10.544c0,4.489 1.3,8.033 3.899,10.632c2.6,2.598 5.628,3.898 9.084,3.898c3.456,0 6.484,-1.285 9.083,-3.854c2.6,-2.57 3.9,-6.099 3.9,-10.588Z" style="fill:#fff;fill-rule:nonzero;"/><path d="M452.252,89.877l0,8.683c3.308,-6.261 8.094,-9.392 14.356,-9.392l0,12.759l-3.102,0c-3.722,0 -6.528,0.93 -8.418,2.79c-1.891,1.861 -2.836,5.065 -2.836,9.614l0,24.63l-12.496,0l0,-49.084l12.496,0Z" style="fill:#fff;fill-rule:nonzero;"/><path d="M508.88,114.419c0,-4.489 -1.3,-8.018 -3.899,-10.588c-2.6,-2.569 -5.642,-3.854 -9.128,-3.854c-3.486,0 -6.514,1.27 -9.084,3.81c-2.57,2.54 -3.855,6.054 -3.855,10.544c0,4.489 1.3,8.033 3.9,10.632c2.599,2.598 5.627,3.898 9.083,3.898c3.456,0 6.484,-1.285 9.084,-3.854c2.599,-2.57 3.899,-6.099 3.899,-10.588Zm-38.638,-0.088c0,-7.384 2.186,-13.423 6.558,-18.119c4.371,-4.696 9.925,-7.044 16.66,-7.044c6.735,0 11.875,2.776 15.42,8.329l0,-7.62l12.407,0l0,49.084l-12.407,0l0,-8.239c-3.722,5.965 -8.891,8.948 -15.508,8.948c-6.617,0 -12.127,-2.377 -16.528,-7.132c-4.402,-4.755 -6.602,-10.824 -6.602,-18.207Z" style="fill:#fff;fill-rule:nonzero;"/><path d="M545.303,89.877l0,7.354c3.131,-5.375 8.212,-8.063 15.243,-8.063c3.722,0 7.045,0.857 9.97,2.57c2.924,1.712 5.184,4.164 6.779,7.353c1.714,-3.071 4.062,-5.493 7.046,-7.265c2.983,-1.772 6.336,-2.658 10.058,-2.658c5.849,0 10.561,1.831 14.135,5.493c3.574,3.662 5.361,8.801 5.361,15.417l0,28.883l-12.406,0l0,-27.111c0,-3.84 -0.975,-6.778 -2.925,-8.816c-1.95,-2.038 -4.608,-3.057 -7.976,-3.057c-3.367,0 -6.041,1.019 -8.02,3.057c-1.979,2.038 -2.969,4.976 -2.969,8.816l0,27.111l-12.407,0l0,-27.111c0,-3.84 -0.974,-6.778 -2.924,-8.816c-1.95,-2.038 -4.608,-3.057 -7.976,-3.057c-3.367,0 -6.041,1.019 -8.02,3.057c-1.979,2.038 -2.969,4.976 -2.969,8.816l0,27.111l-12.495,0l0,-49.084l12.495,0Z" style="fill:#fff;fill-rule:nonzero;"/><path d="M690.198,107.951c-1.595,1.95 -3.914,3.5 -6.957,4.652c-3.043,1.152 -6.602,1.728 -10.679,1.728l-10.28,0l0,24.63l-12.495,0l0,-61.842l22.775,0c7.149,0 12.658,1.786 16.528,5.36c3.87,3.573 5.805,7.782 5.805,12.625c0,4.844 -1.566,9.126 -4.697,12.847Zm-27.916,-3.189l10.28,0c3.132,0 5.524,-0.812 7.179,-2.437c1.654,-1.624 2.481,-3.824 2.481,-6.6c0,-2.777 -0.827,-4.977 -2.481,-6.601c-1.655,-1.625 -4.047,-2.437 -7.179,-2.437l-10.28,0l0,18.075Z" style="fill:#fff;fill-rule:nonzero;"/><rect x="702.516" y="73.397" width="12.495" height="65.564" style="fill:#fff;fill-rule:nonzero;"/><path d="M761.715,114.419c0,-4.489 -1.3,-8.018 -3.9,-10.588c-2.599,-2.569 -5.642,-3.854 -9.128,-3.854c-3.485,0 -6.513,1.27 -9.083,3.81c-2.57,2.54 -3.855,6.054 -3.855,10.544c0,4.489 1.299,8.033 3.899,10.632c2.6,2.598 5.627,3.898 9.084,3.898c3.456,0 6.484,-1.285 9.083,-3.854c2.6,-2.57 3.9,-6.099 3.9,-10.588Zm-38.639,-0.088c0,-7.384 2.186,-13.423 6.558,-18.119c4.372,-4.696 9.925,-7.044 16.661,-7.044c6.735,0 11.875,2.776 15.42,8.329l0,-7.62l12.406,0l0,49.084l-12.406,0l0,-8.239c-3.723,5.965 -8.892,8.948 -15.509,8.948c-6.617,0 -12.126,-2.377 -16.528,-7.132c-4.401,-4.755 -6.602,-10.824 -6.602,-18.207Z" style="fill:#fff;fill-rule:nonzero;"/><path d="M798.847,138.075l-19.231,-48.198l14.002,0l12.495,34.908l13.205,-34.908l13.027,0l-30.663,72.298l-13.027,0l10.192,-24.1Z" style="fill:#fff;fill-rule:nonzero;"/></g></svg>