<?xml version="1.0" encoding="UTF-8" standalone="no"?>
<!DOCTYPE svg PUBLIC "-//W3C//DTD SVG 1.1//EN" "http://www.w3.org/Graphics/SVG/1.1/DTD/svg11.dtd">
<svg width="100%" height="100%" viewBox="0 0 864 216" version="1.1" xmlns="http://www.w3.org/2000/svg" xmlns:xlink="http://www.w3.org/1999/xlink" xml:space="preserve" style="fill-rule:evenodd;clip-rule:evenodd;stroke-linejoin:round;stroke-miterlimit:1.41421;">
    <g id="Layer1">
        <g transform="matrix(1.06444,0,0,1.06444,-13.4892,-8.9552)">
            <path d="M210.052,86.687L210.052,77.119L255.869,77.119L255.869,86.687L239.119,86.687L239.119,138.961L226.712,138.961L226.712,86.687L210.052,86.687L210.052,86.687Z" style="fill:white;fill-rule:nonzero;"/>
        </g>
        <path d="M298.85,114.419C298.85,109.93 297.55,106.401 294.95,103.831C292.351,101.262 289.308,99.977 285.822,99.977C282.337,99.977 279.309,101.247 276.739,103.787C274.169,106.327 272.884,109.841 272.884,114.331C272.884,118.82 274.184,122.364 276.783,124.963C279.383,127.561 282.41,128.861 285.867,128.861C289.323,128.861 292.351,127.576 294.95,125.007C297.55,122.437 298.85,118.908 298.85,114.419L298.85,114.419ZM260.211,114.331C260.211,106.947 262.397,100.908 266.769,96.212C271.141,91.516 276.694,89.168 283.43,89.168C290.165,89.168 295.305,91.944 298.85,97.497L298.85,89.877L311.256,89.877L311.256,138.961L298.85,138.961L298.85,130.722C295.127,136.687 289.958,139.67 283.341,139.67C276.724,139.67 271.215,137.293 266.813,132.538C262.412,127.783 260.211,121.714 260.211,114.331L260.211,114.331Z" style="fill:white;fill-rule:nonzero;"/>
        <path d="M335.273,89.877L335.273,97.231C338.404,91.856 343.485,89.168 350.515,89.168C356.128,89.168 360.707,91.014 364.251,94.706C367.796,98.397 369.569,103.521 369.569,110.078L369.569,138.961L357.162,138.961L357.162,111.85C357.162,108.01 356.187,105.072 354.237,103.034C352.288,100.996 349.629,99.977 346.262,99.977C342.894,99.977 340.221,100.996 338.241,103.034C336.262,105.072 335.273,108.01 335.273,111.85L335.273,138.961L322.777,138.961L322.777,89.877L335.273,89.877Z" style="fill:white;fill-rule:nonzero;"/>
        <path d="M377.19,114.331C377.19,106.947 379.376,100.908 383.748,96.212C388.12,91.516 393.674,89.168 400.409,89.168C407.144,89.168 412.284,91.944 415.829,97.497L415.829,89.877L428.236,89.877L428.236,139.316C428.236,146.345 426.168,152.089 422.032,156.548C417.896,161.008 412.092,163.238 404.618,163.238C397.144,163.238 391.207,161.687 386.805,158.586C382.404,155.485 379.908,151.07 379.317,145.341L391.547,145.341C392.315,147.526 393.792,149.254 395.978,150.524C398.164,151.794 400.911,152.429 404.219,152.429C407.528,152.429 410.29,151.336 412.505,149.15C414.721,146.965 415.829,143.687 415.829,139.316L415.829,130.722C412.107,136.687 406.937,139.67 400.32,139.67C393.703,139.67 388.194,137.293 383.792,132.538C379.391,127.783 377.19,121.714 377.19,114.331L377.19,114.331ZM415.829,114.419C415.829,109.93 414.529,106.401 411.929,103.831C409.33,101.262 406.287,99.977 402.801,99.977C399.316,99.977 396.288,101.247 393.718,103.787C391.148,106.327 389.863,109.841 389.863,114.331C389.863,118.82 391.163,122.364 393.762,124.963C396.362,127.561 399.39,128.861 402.846,128.861C406.302,128.861 409.33,127.576 411.929,125.007C414.529,122.437 415.829,118.908 415.829,114.419L415.829,114.419Z" style="fill:white;fill-rule:nonzero;"/>
        <path d="M452.252,89.877L452.252,98.56C455.56,92.299 460.346,89.168 466.608,89.168L466.608,101.927L463.506,101.927C459.784,101.927 456.978,102.857 455.088,104.717C453.197,106.578 452.252,109.782 452.252,114.331L452.252,138.961L439.756,138.961L439.756,89.877L452.252,89.877Z" style="fill:white;fill-rule:nonzero;"/>
        <path d="M508.88,114.419C508.88,109.93 507.58,106.401 504.981,103.831C502.381,101.262 499.339,99.977 495.853,99.977C492.367,99.977 489.339,101.247 486.769,103.787C484.199,106.327 482.914,109.841 482.914,114.331C482.914,118.82 484.214,122.364 486.814,124.963C489.413,127.561 492.441,128.861 495.897,128.861C499.353,128.861 502.381,127.576 504.981,125.007C507.58,122.437 508.88,118.908 508.88,114.419L508.88,114.419ZM470.242,114.331C470.242,106.947 472.428,100.908 476.8,96.212C481.171,91.516 486.725,89.168 493.46,89.168C500.195,89.168 505.335,91.944 508.88,97.497L508.88,89.877L521.287,89.877L521.287,138.961L508.88,138.961L508.88,130.722C505.158,136.687 499.989,139.67 493.372,139.67C486.755,139.67 481.245,137.293 476.844,132.538C472.442,127.783 470.242,121.714 470.242,114.331L470.242,114.331Z" style="fill:white;fill-rule:nonzero;"/>
        <path d="M545.303,89.877L545.303,97.231C548.434,91.856 553.515,89.168 560.546,89.168C564.268,89.168 567.591,90.025 570.516,91.738C573.44,93.45 575.7,95.902 577.295,99.091C579.009,96.02 581.357,93.598 584.341,91.826C587.324,90.054 590.677,89.168 594.399,89.168C600.248,89.168 604.96,90.999 608.534,94.661C612.108,98.323 613.895,103.462 613.895,110.078L613.895,138.961L601.489,138.961L601.489,111.85C601.489,108.01 600.514,105.072 598.564,103.034C596.614,100.996 593.956,99.977 590.588,99.977C587.221,99.977 584.547,100.996 582.568,103.034C580.589,105.072 579.599,108.01 579.599,111.85L579.599,138.961L567.192,138.961L567.192,111.85C567.192,108.01 566.218,105.072 564.268,103.034C562.318,100.996 559.66,99.977 556.292,99.977C552.925,99.977 550.251,100.996 548.272,103.034C546.293,105.072 545.303,108.01 545.303,111.85L545.303,138.961L532.808,138.961L532.808,89.877L545.303,89.877Z" style="fill:white;fill-rule:nonzero;"/>
        <g transform="matrix(1.04258,0,0,1.04258,-29.5874,-5.91671)">
            <path d="M690.198,107.951C688.603,109.901 686.284,111.451 683.241,112.603C680.198,113.755 676.639,114.331 672.562,114.331L662.282,114.331L662.282,138.961L649.787,138.961L649.787,77.119L672.562,77.119C679.711,77.119 685.22,78.905 689.09,82.479C692.96,86.052 694.895,90.261 694.895,95.104C694.895,99.948 693.329,104.23 690.198,107.951L690.198,107.951ZM662.282,104.762L672.562,104.762C675.694,104.762 678.086,103.95 679.741,102.325C681.395,100.701 682.222,98.501 682.222,95.725C682.222,92.948 681.395,90.748 679.741,89.124C678.086,87.499 675.694,86.687 672.562,86.687L662.282,86.687L662.282,104.762Z" style="fill:white;fill-rule:nonzero;"/>
        </g>
        <rect x="702.516" y="73.397" width="12.495" height="65.564" style="fill:white;"/>
        <path d="M761.715,114.419C761.715,109.93 760.415,106.401 757.815,103.831C755.216,101.262 752.173,99.977 748.687,99.977C745.202,99.977 742.174,101.247 739.604,103.787C737.034,106.327 735.749,109.841 735.749,114.331C735.749,118.82 737.048,122.364 739.648,124.963C742.248,127.561 745.275,128.861 748.732,128.861C752.188,128.861 755.216,127.576 757.815,125.007C760.415,122.437 761.715,118.908 761.715,114.419L761.715,114.419ZM723.076,114.331C723.076,106.947 725.262,100.908 729.634,96.212C734.006,91.516 739.559,89.168 746.295,89.168C753.03,89.168 758.17,91.944 761.715,97.497L761.715,89.877L774.121,89.877L774.121,138.961L761.715,138.961L761.715,130.722C757.992,136.687 752.823,139.67 746.206,139.67C739.589,139.67 734.08,137.293 729.678,132.538C725.277,127.783 723.076,121.714 723.076,114.331L723.076,114.331Z" style="fill:white;fill-rule:nonzero;"/>
        <path d="M798.847,138.075L779.616,89.877L793.618,89.877L806.113,124.785L819.318,89.877L832.345,89.877L801.682,162.175L788.655,162.175L798.847,138.075Z" style="fill:white;fill-rule:nonzero;"/>
    </g>
</svg>
